<svg width="231" height="90" viewBox="0 0 231 90" fill="none" xmlns="http://www.w3.org/2000/svg">
<path d="M4.16 90C3.22133 90 2.45333 89.7013 1.856 89.104C1.25867 88.5067 0.96 87.7387 0.96 86.8V3.6C0.96 2.66133 1.25867 1.89333 1.856 1.296C2.45333 0.698662 3.22133 0.399994 4.16 0.399994H21.312C22.2507 0.399994 23.0187 0.698662 23.616 1.296C24.2133 1.89333 24.512 2.66133 24.512 3.6V86.8C24.512 87.7387 24.2133 88.5067 23.616 89.104C23.0187 89.7013 22.2507 90 21.312 90H4.16ZM65.372 90C64.4333 90 63.6653 89.7013 63.068 89.104C62.4707 88.5067 62.172 87.7387 62.172 86.8V20.496H39.388C38.4493 20.496 37.6813 20.1973 37.084 19.6C36.4867 18.9173 36.188 18.1493 36.188 17.296V3.6C36.188 2.66133 36.4867 1.89333 37.084 1.296C37.6813 0.698662 38.4493 0.399994 39.388 0.399994H108.252C109.191 0.399994 109.959 0.698662 110.556 1.296C111.153 1.89333 111.452 2.66133 111.452 3.6V17.296C111.452 18.1493 111.153 18.9173 110.556 19.6C109.959 20.1973 109.191 20.496 108.252 20.496H85.468V86.8C85.468 87.7387 85.1693 88.5067 84.572 89.104C83.9747 89.7013 83.2067 90 82.268 90H65.372ZM126.285 90C125.346 90 124.578 89.7013 123.981 89.104C123.384 88.5067 123.085 87.7387 123.085 86.8V3.6C123.085 2.66133 123.384 1.89333 123.981 1.296C124.578 0.698662 125.346 0.399994 126.285 0.399994H162.125C169.208 0.399994 175.352 1.50933 180.557 3.728C185.848 5.86133 189.944 9.10399 192.845 13.456C195.832 17.808 197.325 23.312 197.325 29.968C197.325 36.5387 195.832 41.9573 192.845 46.224C189.944 50.4907 185.848 53.648 180.557 55.696C175.352 57.744 169.208 58.768 162.125 58.768H146.893V86.8C146.893 87.7387 146.552 88.5067 145.869 89.104C145.272 89.7013 144.504 90 143.565 90H126.285ZM146.509 41.104H161.485C165.154 41.104 168.056 40.1653 170.189 38.288C172.408 36.4107 173.517 33.552 173.517 29.712C173.517 26.4693 172.578 23.7387 170.701 21.52C168.824 19.3013 165.752 18.192 161.485 18.192H146.509V41.104Z" fill="#023B54"/>
<path d="M210.737 90C209.798 90 209.03 89.7013 208.433 89.104C207.836 88.5067 207.537 87.7387 207.537 86.8V70.544C207.537 69.6907 207.836 68.9653 208.433 68.368C209.03 67.6853 209.798 67.344 210.737 67.344H226.865C227.804 67.344 228.572 67.6853 229.169 68.368C229.852 68.9653 230.193 69.6907 230.193 70.544V86.8C230.193 87.7387 229.852 88.5067 229.169 89.104C228.572 89.7013 227.804 90 226.865 90H210.737Z" fill="#2A7FFE"/>
</svg>
